<?xml version="1.0" standalone="no"?>
<!DOCTYPE svg PUBLIC "-//W3C//DTD SVG 20010904//EN"
 "http://www.w3.org/TR/2001/REC-SVG-20010904/DTD/svg10.dtd">
<svg version="1.0" xmlns="http://www.w3.org/2000/svg"
 width="640.000000pt" height="1280.000000pt" viewBox="0 0 640.000000 1280.000000"
 preserveAspectRatio="xMidYMid meet">
<metadata>
Created by potrace 1.15, written by Peter Selinger 2001-2017
</metadata>
<g transform="translate(0.000000,1280.000000) scale(0.100000,-0.100000)"
fill="#000000" stroke="none">
<path d="M3025 12780 c-202 -45 -386 -129 -597 -270 -73 -49 -143 -97 -154
-107 -20 -17 -28 -74 -108 -763 l-87 -745 13 -138 14 -137 -41 -11 c-51 -14
-62 -23 -70 -59 -4 -16 -10 -28 -15 -27 -13 3 -133 -88 -214 -164 -175 -163
-255 -356 -227 -545 6 -43 26 -117 43 -164 17 -47 31 -98 31 -115 0 -16 -50
-239 -113 -495 -107 -442 -115 -470 -166 -570 -88 -173 -147 -371 -175 -585
-16 -126 -14 -476 5 -760 9 -132 17 -321 18 -420 1 -173 0 -184 -27 -265 -16
-47 -34 -89 -41 -95 -13 -10 -62 -133 -91 -230 -25 -82 -14 -153 43 -285 l50
-115 95 1 c120 1 165 14 223 66 l48 41 -6 -44 c-31 -223 -84 -775 -92 -952 -7
-154 -3 -197 22 -197 29 0 75 144 144 455 17 76 33 142 36 145 3 3 3 -11 -1
-30 -3 -19 -25 -178 -49 -352 -40 -298 -41 -318 -24 -318 13 0 18 -8 18 -26 0
-23 3 -25 27 -19 42 10 78 41 116 97 37 58 95 197 123 296 9 34 18 61 20 59 2
-1 42 -196 89 -432 119 -594 159 -773 205 -911 116 -344 193 -673 232 -994 16
-136 16 -537 0 -660 -26 -196 -77 -407 -131 -538 l-26 -65 -458 -257 c-252
-142 -462 -261 -467 -266 -13 -13 5 -82 28 -113 10 -14 43 -38 73 -54 152 -77
464 -76 1040 4 123 17 285 39 359 48 l135 17 8 69 c8 78 3 214 -19 440 -18
192 -18 306 1 507 41 428 103 723 231 1100 72 209 86 279 87 418 1 186 -45
313 -225 620 -46 80 -109 190 -140 245 l-55 100 27 254 c20 178 32 256 41 262
8 5 62 9 120 9 l106 0 6 272 c4 149 8 346 8 437 2 195 1 200 55 -332 21 -208
41 -382 44 -387 4 -6 51 -5 126 4 207 25 180 32 218 -55 38 -87 90 -171 140
-226 39 -44 179 -362 191 -434 58 -361 166 -763 380 -1419 153 -467 161 -495
209 -731 66 -322 79 -427 79 -634 1 -190 -15 -317 -51 -412 -10 -27 -86 -156
-168 -288 -83 -132 -160 -257 -173 -278 l-23 -37 29 -38 c16 -20 46 -63 66
-95 61 -93 61 -93 332 -62 261 30 334 44 405 80 95 48 172 139 274 324 l46 84
-11 86 c-6 47 -33 208 -59 356 -102 569 -109 655 -76 960 23 212 27 658 8 850
-50 494 -171 955 -389 1482 -3 7 12 14 42 19 33 4 43 10 36 17 -20 20 -11 27
37 27 56 0 68 7 48 29 -48 56 -401 1358 -896 3303 l-43 166 22 31 c34 47 59
280 62 571 3 250 -1 282 -50 378 -25 48 -51 68 -103 77 -21 4 -38 9 -38 12 0
3 48 66 107 141 59 76 108 139 110 141 7 9 15 -11 77 -185 35 -98 125 -343
199 -544 237 -641 348 -978 436 -1320 49 -191 102 -445 96 -462 -2 -7 -9 -33
-16 -58 -9 -37 -30 -64 -115 -151 l-105 -106 -24 -238 c-31 -294 -31 -286 1
-319 35 -34 83 -35 121 -2 27 24 28 26 31 148 l4 125 29 17 c16 9 29 14 29 9
1 -4 9 -75 19 -157 l18 -149 -89 -190 -89 -190 22 -23 c27 -29 53 -35 77 -18
11 7 61 81 113 163 51 83 94 149 96 148 1 -2 -20 -59 -47 -128 -27 -68 -50
-136 -50 -150 0 -30 15 -34 155 -45 73 -6 83 -4 115 18 84 57 110 135 110 325
0 107 2 115 23 136 l24 22 -13 320 -13 320 24 115 c44 213 58 380 52 635 -11
439 -67 696 -327 1515 -243 765 -232 718 -234 990 -3 240 -12 305 -60 434 -34
91 -70 148 -135 219 -57 61 -100 87 -146 87 -14 0 -25 5 -25 10 0 6 -6 10 -13
10 -8 0 -58 30 -112 66 -121 81 -271 154 -390 189 -49 15 -96 29 -102 31 -19
5 -19 30 23 964 5 124 3 163 -16 270 -43 246 -85 385 -160 528 -69 133 -54
124 -320 197 -129 36 -242 64 -250 64 -8 0 -51 -9 -95 -19z m-1481 -6457 c-8
-49 -14 -105 -14 -125 0 -36 -12 -49 -25 -28 -11 17 34 240 48 240 2 0 -2 -39
-9 -87z"/>
</g>
</svg>
